<?xml version="1.0" standalone="no"?>
<!DOCTYPE svg PUBLIC "-//W3C//DTD SVG 20010904//EN"
 "http://www.w3.org/TR/2001/REC-SVG-20010904/DTD/svg10.dtd">
<svg version="1.0" xmlns="http://www.w3.org/2000/svg"
 width="700.000000pt" height="700.000000pt" viewBox="0 0 700.000000 700.000000"
 preserveAspectRatio="xMidYMid meet">
<metadata>
Created by potrace 1.14, written by Peter Selinger 2001-2017
</metadata>
<g transform="translate(0.000000,700.000000) scale(0.100000,-0.100000)"
fill="#000000" stroke="none">
<path d="M4466 6992 c-2 -4 -30 -73 -62 -152 -31 -80 -112 -287 -181 -460 -68
-173 -128 -324 -132 -335 -5 -11 -41 -103 -81 -205 -40 -102 -76 -194 -81
-205 -4 -11 -27 -67 -49 -125 -22 -58 -45 -114 -50 -125 -8 -19 -75 -190 -157
-400 -19 -49 -39 -99 -44 -110 -4 -11 -27 -67 -49 -125 -23 -58 -48 -119 -55
-137 -8 -17 -15 -34 -15 -38 0 -4 -6 -21 -14 -38 -8 -18 -46 -115 -86 -217
-39 -102 -80 -205 -90 -230 -11 -25 -67 -166 -125 -315 -110 -282 -191 -487
-370 -940 -59 -148 -127 -322 -152 -385 -115 -293 -254 -647 -263 -665 -5 -11
-34 -85 -65 -165 -31 -80 -97 -248 -147 -375 -50 -126 -117 -297 -150 -380
-32 -82 -63 -159 -68 -170 -21 -49 -270 -684 -270 -689 0 -4 185 -5 412 -4
l412 3 98 250 c55 138 105 264 113 282 8 17 15 36 15 42 0 6 5 19 10 29 6 9
53 127 106 262 152 389 185 474 195 495 8 19 111 281 305 775 47 118 91 229
99 247 8 17 15 36 15 42 0 6 5 19 10 29 10 16 183 454 406 1027 58 149 111
284 118 300 19 43 100 249 102 255 0 3 5 16 11 30 6 14 19 45 28 70 9 25 23
59 30 75 8 17 96 239 196 495 100 256 187 479 194 495 7 17 48 118 90 225 42
107 96 245 120 305 24 61 89 227 145 370 55 143 105 269 110 280 5 11 37 90
70 175 33 85 65 164 70 175 12 27 100 256 100 261 0 8 -819 4 -824 -4z"/>
</g>
</svg>
