<?xml version="1.0" standalone="no"?>
<!DOCTYPE svg PUBLIC "-//W3C//DTD SVG 20010904//EN"
 "http://www.w3.org/TR/2001/REC-SVG-20010904/DTD/svg10.dtd">
<svg version="1.0" xmlns="http://www.w3.org/2000/svg"
 width="346.000000pt" height="341.000000pt" viewBox="0 0 346.000000 341.000000"
 preserveAspectRatio="xMidYMid meet">
<metadata>
Created by potrace 1.16, written by Peter Selinger 2001-2019
</metadata>
<g transform="translate(0.000000,341.000000) scale(0.100000,-0.100000)"
fill="#000000" stroke="none">
<path d="M1445 2745 c-149 -23 -332 -100 -456 -192 -33 -24 -64 -43 -70 -43
-16 0 -100 -83 -162 -160 -109 -136 -170 -263 -212 -440 -21 -90 -21 -313 0
-330 8 -7 15 -26 15 -42 0 -29 48 -178 57 -178 2 0 2 10 -2 23 -3 12 12 -15
34 -60 22 -46 43 -83 46 -83 4 0 5 7 1 15 -14 39 14 7 61 -68 28 -45 66 -98
83 -117 38 -41 26 -21 -54 95 -33 46 -57 87 -54 91 3 3 22 -19 41 -48 38 -57
97 -119 97 -101 0 5 -9 18 -20 28 -27 24 -64 84 -57 92 4 3 -1 19 -9 35 -23
45 -11 56 14 13 13 -20 25 -35 28 -32 7 7 -55 126 -77 148 -29 29 -71 206 -70
299 1 89 22 227 40 270 11 24 11 24 5 -5 -9 -45 1 -29 35 60 39 103 117 221
200 305 68 69 169 142 199 145 9 1 33 8 52 17 162 74 249 93 435 92 152 -1
227 -14 369 -63 215 -76 388 -186 492 -315 22 -28 60 -91 84 -139 43 -87 44
-90 48 -209 6 -164 -8 -224 -89 -380 -30 -59 -39 -70 -123 -167 -48 -53 -167
-155 -231 -196 -110 -70 -298 -145 -435 -175 -83 -18 -107 -29 -89 -41 18 -12
52 -12 44 0 -3 5 21 15 52 21 32 6 74 16 93 21 19 5 42 9 50 9 34 -1 -22 -28
-83 -40 -60 -13 -76 -18 -146 -54 -31 -15 -36 -15 -50 -1 -14 13 -13 15 7 15
12 0 22 4 22 10 0 6 -10 6 -27 -1 -20 -7 -34 -7 -50 2 -26 14 -38 7 -30 -15 5
-12 15 -14 37 -10 25 6 29 4 24 -10 -9 -24 36 -25 261 -7 95 7 142 16 225 45
58 20 106 36 107 36 2 0 3 6 3 14 0 11 120 96 136 96 10 0 104 69 159 116 31
27 74 73 96 101 22 29 45 53 52 53 15 0 76 91 87 129 4 15 12 36 18 47 6 10
18 53 27 94 8 41 22 88 30 104 11 20 15 60 15 135 -1 287 -149 539 -421 718
-293 191 -655 277 -964 228z"/>
</g>
</svg>
