<?xml version="1.0" encoding="utf-8"?>
<!-- Generator: Adobe Illustrator 24.3.0, SVG Export Plug-In . SVG Version: 6.00 Build 0)  -->
<svg version="1.1" baseProfile="tiny" id="Слой_1"
	 xmlns="http://www.w3.org/2000/svg" xmlns:xlink="http://www.w3.org/1999/xlink" x="0px" y="0px" viewBox="0 0 1000 1000"
	 overflow="visible" xml:space="preserve">
<g>
	<path fill="#FEFEFE" d="M999.7,500.6c0,162-0.1,323.9,0.3,485.9c0,9.9-1.9,11.8-11.8,11.8c-325.4-0.3-650.9-0.3-976.3,0
		c-9.9,0-11.8-1.9-11.8-11.8C0.3,661.6,0.3,336.7,0,11.8C0,1.9,1.9,0,11.8,0c325.4,0.3,650.9,0.3,976.3,0c9.9,0,11.9,1.9,11.8,11.8
		C999.6,174.7,999.7,337.7,999.7,500.6z M156.5,576.9c0.5,9.7-3.1,19.8,2.9,28.9c0.1,2.8,0.3,5.6,0.4,8.4c-0.8,5.3-0.2,10.4,1,15.6
		c6.3,28.2,15.7,55.2,29.8,80.6c30.5,54.8,70.9,99.5,128.5,127c28.8,13.7,58.3,25.3,86.1,41.8c55.1,32.7,114.8,39.4,177.3,22.9
		c43.6-11.5,82-32.3,117.3-59.5c30.1-23.2,56.2-50.2,74.5-83.9c10.5-12.1,20.8-24.3,31.5-36.2c33-36.9,57.1-78.2,63.6-128.2
		c4.5-11,5.6-22.6,6.2-34.4c1.2-25.2-2.4-50.1-3.5-75.2c-0.8-1-1.5-2-2.3-3.1l0-0.3c0.7-15.4-2.7-29.9-8.5-45.2
		c-3.5,3.3-6.2,5.8-9,8.3c-0.2,0.9-0.2,1.8,0,2.7c-0.2,2.4,0.2,4.6,2.2,6.2c0.1,4.7,0.2,9.3,0.3,14c-9.5,8.4-7.8-4.1-7.8-5.4
		c-0.7-18.6-6.8-35.6-12.3-53.1c-9.4-29.8-22.8-57.6-38.3-84.5c-20-34.7-46.7-63.7-77.5-89.2c-4.2-3.5-11-4.7-11.4-11.9
		c14.4,6.8,28.8,13.6,43.3,20.5c3.5,6.4,9.6,7.7,15.8,9.6c1.5-6.5-12-6.9-3.9-14.4c25.2,16.6,50.4,33.3,72.7,53.7
		c11,10.1,12.5,10.1,16.6,6.1c9.2-9.2,0.9-14-4.7-18.8c-16-13.7-31.9-27.7-48.7-40.3c-31.4-23.4-61.1-50.7-95.8-67.7
		c-52-25.4-108.8-40.1-167.4-41.9c-73.8-2.3-139.2,22.9-198.7,64.9c-7.1,5-16.1,9-19.5,18.3c-7.9,5.5-16.7,10-22.9,17.7
		c-13,4.1-24.3,9.6-22.2,26.4c-48.5,42.6-84.8,93.2-104,155.4c-13.1,42.4-16,85.4-9.7,129.2c-7.1,1.3-5.5,6.5-5,11.1
		C154.5,561,155.6,568.9,156.5,576.9z"/>
	<path fill="#5B746A" d="M158.7,541.9c-6.3-43.8-3.4-86.8,9.7-129.2c19.2-62.2,55.5-112.8,104-155.4c5.2-0.5,8.5-4.3,12.3-7.1
		c47.9-35.1,101.7-54.2,160.5-60.1c17.3,1.9,34.6-4.9,51.9,0.4c0.8,0.2,1.6,0.3,2.4,0.3c24.6,1.3,48.5,7.4,72.7,11.4
		c2.9,3.8,7.6,3.9,11.6,5.1c31.9,9.5,62.4,22,91.1,38.8C775,304.5,829.4,387.8,817.2,507.3c-6.4,5.5-6,13.5-8,20.7
		c-5.4,14.8-4.1,31.4-11.8,45.6c-3.4,2.1-5.6,4.9-5.7,9C755.1,646.3,703.9,694,637,725c-11.3,5.2-22.8,9.9-34.6,13.5
		c-22.8,6.9-45.6,11.4-70.1,11c-17.2-0.3-34.8,5.3-52.6,3.3c1.2-6.3,6.4-7.3,11.3-8.8c5.2,0.8,9.5,0,11.8-5.5
		c0.8-0.9,1.7-1.7,2.5-2.6c15.4-1.1,30.6-2.7,43.8-11.8l-0.2,0.1c1,0,2-0.1,3-0.1c6.7-0.8,5.5-5.6,5.1-10
		c56.2-20,105.2-50.9,146.3-94.3c36.6-38.6,59-84.2,64.1-136.7c7.1-72.7-26.7-129.1-82.4-170.6c-72.1-53.7-154-80.8-245.6-71.2
		c-38.3,4-74.4,14-106.3,36.5c-5.6-1.4-8.9,3-12.7,5.5c-39.6,24.9-68.5,59.8-89,101c-18.4,37.1-32.8,76-34.7,118.2
		c-0.9,19.6,6.9,37.9,10.2,56.9c1.9,11.3,1.9,23.9,11.8,32.6c2.7,14.9,11.9,26.8,18.8,39.8c-5.8,0.2-7.1,2.4-4.5,7.8
		c4.7,9.6,8.7,19.6,13,29.4c-4.4-0.9-6.6-6.3-11.7-5.7l-0.1,0c0.2-2.5-0.4-4.5-2.9-5.7l-0.1,0c-1-1-1.9-1.9-2.9-2.9l0,0
		c0-2.4-0.6-4.5-2.9-5.8l0,0c-1-1-2-2-3-3c-2.9-6.2-5.7-12.6-14.5-11.3c-1.4,1.2-2.8,2.4-4.3,3.6c-4.9-6-15.4-4.2-18.3-13.7
		c-1.8-5.8-5.7-10.9-8.6-16.4c-0.9-2-1.8-3.9-2.8-5.9c0-3.2-0.1-6.4-2.8-8.7C167.2,576.4,162.9,559.1,158.7,541.9z"/>
	<path fill="#94BEAC" d="M177.1,608.2c2.9,5.4,6.8,10.6,8.6,16.4c2.9,9.5,13.4,7.7,18.3,13.7c1.4-1.2,2.8-2.4,4.3-3.6
		c9.4,18.9,21.7,35.8,34.6,52.4c2.5,3.2,4.8,10.7,11.9,5.2c4.6,9.4,7.1,20.2,17,26.1c13.4,17.2,29.9,31.1,48,42.7
		c17.5,11.2,35,23.2,56.6,25.8l0.1,0.1c-0.7,4.4,1.4,6.2,5.6,5.9c4.3,2.8,8,7.3,14.1,5.9c1,9.4,8.5,9.8,15.5,11.8
		c33.8,9.6,68.4,5.6,102.5,5.1c17.7-0.2,35.2-5.7,52.3-11.1c19-6.1,39.8-7.5,54.9-22.8l0,0c17.6,0,30.9-11.2,46.2-17.2
		c14.9-5.8,26.8-18.1,43.3-20.5c-6.7,9.9-19.7,12.2-26.2,22.7c15.4-5.7,28.9-14.6,41.2-25.3c4-3.5,0.6-5.7-3.7-5.6
		c0-5.8,4.9-7.4,8.3-10.6c7.7-7.4,17.8-13,21-24.3c0,0-0.1,0-0.1,0c1-1,2.1-2,3.1-3c11.1-4.3,20.2-10.5,22.9-23
		c1.9,0,3.8-0.1,5.7-0.1c5.9,5.8,5.9,5.8,9.6-4.3c-4.5-1.4-6.1,3.6-9.7,4.4c-0.8-5.2,2.6-8.7,4.9-12.9c12.8-24.2,33-44,41.4-70.7
		l0,0c0.2,1.9-0.3,4.6,0.8,5.5c3.1,2.6,4-0.9,4.6-2.8c4.8-15,10.6-29.8,9-46c0-14.4,0-28.8,0.1-43.2c9.2-2,4.7-9.3,5.6-14.5
		c0.5-2.6-0.9-6.6,3-6.9c3.3-0.3,2.7,3.3,2.9,5.5c0.2,2.4,0,4.8-0.1,7.2c-0.8,1.6-2.7,3.5-2.4,4.9c5.1,23.8,1.1,47.1-3,70.5
		c-0.7,4.1-2.2,9.3,2.3,13c9.6-7.7,2.9-19.7,8.9-27.9c7.3,2.8,10.1,6.9,7.4,15.4c-2.3,7-7.3,15.3,1.2,22.1
		c-6.5,50-30.6,91.3-63.6,128.2c-10.7,11.9-21,24.1-31.5,36.2c-3.7-0.2-6.2,2-8.8,4.3c-30.9,26.8-64.5,49.2-102.2,65.5
		c-57.1,24.7-116.2,41.8-178.8,42.4c-39.8,0.4-78.2-2-116.7-19.5c-48.1-21.9-94.2-43.9-130-84.2c-35.1-39.5-59.4-84-70.6-135.7
		c-1.3-5.9,0.2-13.9-7.5-17.3c-0.1-2.8-0.3-5.6-0.4-8.4c0.9-1.9,1.8-3.8,2.7-5.7c5.2,2.4,6.1,7.9,8.8,12.1c1.1,1.6,2.2,4.9,4.8,2
		c1-1.1,0.4-3.6,0.6-5.4L177.1,608.2z M846.5,591.3c-4.8,13.5-9.6,27-14.3,40.5c-4.2,8.6-9.7,16.7-11.6,29.6
		c8.2-8.5,10.5-16.7,14.4-24c7.3-13.6,11.1-28.3,14.5-43.2C848.8,593,851.1,588.8,846.5,591.3z M603.2,802.3
		c19.9,0.5,39.6-8.7,45.4-20.6C631.2,785.4,618.7,797.2,603.2,802.3z M659.6,776.3c-0.6,0.5-2,1.1-2.4,2.1c-0.5,1.5,0.6,2.7,2.2,2.3
		c1.1-0.3,2.5-1.2,2.9-2.2C663,776.9,661.6,776.4,659.6,776.3z M799.4,662.8c-0.8-0.3-1.8-1.1-2.4-0.9c-0.6,0.2-0.8,1.5-1.1,2.3
		c0.8,0.3,1.8,1.1,2.4,0.9C798.8,664.8,799,663.6,799.4,662.8z"/>
	<path fill="#97C0AE" d="M317.4,213.2c3.5-9.3,12.4-13.3,19.5-18.3c59.5-41.9,124.9-67.2,198.7-64.9c58.6,1.8,115.4,16.5,167.4,41.9
		c34.7,16.9,64.4,44.3,95.8,67.7c16.9,12.6,32.7,26.6,48.7,40.3c5.6,4.8,14,9.7,4.7,18.8c-4,4-5.6,4-16.6-6.1
		c-22.4-20.5-47.5-37.2-72.7-53.7c-3.5-7.7-10.5-9.1-19.7-11.1c2.9,6.6,9.1,9.7,7.8,15.9c-14.4-6.8-28.8-13.6-43.3-20.4
		c-1.5-4.9-6.3-5.7-10.1-7.2c-48-18.2-96.7-33.2-148.9-31.2c-4.8,0-9.6,0.1-14.4,0.1c-2.8,0-5.5,0-8.3,0c-2,0-4,0-6,0
		c-2.8-6-8.2-5.2-13.5-5.8c-15.9-1.8-31.4,2.7-47.1,3c-22.5-4.2-44.4,0.9-66.2,5.3C366.9,192.7,342.9,205,317.4,213.2z M735.8,223.1
		c-0.3-0.8-0.5-2.1-1-2.3c-0.6-0.3-1.6,0.5-2.4,0.8c0.3,0.8,0.5,2.1,1,2.3C734,224.2,735,223.4,735.8,223.1z"/>
	<path fill="#AEDDC9" d="M159.9,614.2c7.8,3.4,6.3,11.3,7.5,17.3c11.2,51.7,35.6,96.2,70.6,135.7c35.7,40.3,81.9,62.3,130,84.2
		c38.4,17.5,76.9,19.9,116.7,19.5c62.6-0.6,121.7-17.7,178.8-42.4c37.7-16.3,71.3-38.7,102.2-65.5c2.6-2.2,5.1-4.4,8.8-4.3
		c-18.3,33.7-44.4,60.8-74.5,83.9c-35.3,27.1-73.7,48-117.3,59.5c-62.5,16.5-122.2,9.9-177.3-22.9c-27.7-16.5-57.3-28.1-86.1-41.8
		c-57.6-27.5-98-72.2-128.5-127c-14.1-25.3-23.5-52.4-29.8-80.6C159.7,624.6,159.1,619.5,159.9,614.2z"/>
	<path fill="#AFDFCA" d="M548.8,184.8c52.2-2,100.9,13,148.9,31.2c3.8,1.4,8.5,2.3,10.1,7.2c0.4,7.2,7.2,8.4,11.4,11.9
		c30.8,25.5,57.6,54.5,77.5,89.2c15.5,26.9,28.9,54.7,38.3,84.5c5.5,17.5,11.6,34.6,12.3,53.1c0,1.3-1.6,13.9,7.8,5.4
		c4.7,9.1,6.1,18.8,5.8,28.9c-1.9,0-3.9-0.1-5.8-0.1c0-2.4,0.2-4.8,0.1-7.2c-0.2-2.2,0.4-5.8-2.9-5.5c-3.9,0.4-2.5,4.3-3,6.9
		c-9.1,2-4.5,9.4-5.6,14.5c0,14.4,0,28.8-0.1,43.2c-14.6,1.7-12.8-8.9-10.8-16.6c2.3-9,2.2-16.6-3.8-23.7c0.1-3.2,0.3-6.4,0.4-9.7
		l-0.1-0.4c3-22.3,6.2-44.6-2.9-66.4l0.1,0c-2.3-39-22-71.1-41.3-103.4c-0.7-1.2-3.3-1.3-5-1.9l0,0.1c0.8-2.8-0.1-4.8-2.9-5.8l0,0
		c-0.6-5.2-2.8-8.8-8.7-8.7l0,0c0.1-2.1-0.9-3.1-2.9-2.9l0.1,0.1c0.8-2.8-0.2-4.8-3-5.9l0.1,0.1c-1-1-2-2-3-3l0.1,0.1
		c-0.7-3.2-2.6-5.2-5.8-5.8c0,0,0.1,0.1,0.1,0.1c-1-1-2-2-3-3c0,0,0.1,0.1,0.1,0.1c-0.7-3.2-2.7-5-5.8-5.8l0.1,0.1
		c-1.1-2.7-3-3.8-5.9-2.9l0.1,0.1c0.1-2.1-0.9-3-3-3c0,0,0.1,0,0.1,0c0-1,0.1-2,0.1-2.9c-2-3.4-4.6-5.8-8.8-5.7l0,0
		c-1-2.8-2.9-3.8-5.8-2.9l0,0c-0.6-7.2-5.1-9.2-11.5-8.6l0,0c-0.1-6.1-4.1-6.3-8.7-5.8l0,0c-0.7-1.7-0.9-4.1-2.1-4.9
		c-40.6-25.8-83.5-46.3-130.9-56.3c-1.8-1.9-4.3-2.8-4.8,0.4c-0.4,2.8,2.9,2.7,5.1,2.9c0.8,1.2,1.7,2.4,2.5,3.6c0,0.9,0,1.7,0.1,2.6
		c-24.2-3.9-48.1-10-72.7-11.4c5.7-6.9,13.7-1.8,20.3-3.7c2.6,0.6,4.9,0.4,6.3-2.3c2.8,0,5.5,0,8.3,0c6.2,6.3,10.3,7.2,22.7,5.2
		C554.1,188.2,551.5,186.5,548.8,184.8z"/>
	<path fill="#A6D1BF" d="M861,496.3c0.3-10.1-1.2-19.8-5.8-28.9c-0.1-4.7-0.2-9.3-0.3-14c3.4-2.6,3.8,0.6,4.6,2.4
		c3.6,7.8,4.8,16,4.7,24.6c-0.1,11,3.9,0.5,5.9,0.9c0,0,0,0.3,0,0.3c0.8,1,1.5,2,2.3,3.1c1.1,25.1,4.7,50,3.5,75.2
		c-0.6,11.8-1.7,23.4-6.2,34.4c-8.5-6.9-3.5-15.1-1.2-22.1c2.8-8.5,0-12.6-7.3-15.4C861,536.6,861,516.4,861,496.3z"/>
	<path fill="#8EB4A3" d="M445.2,190.1c-58.8,5.9-112.7,25-160.5,60.1c-3.7,2.7-7.1,6.6-12.3,7.1c-2.1-16.7,9.1-22.3,22.2-26.4
		c5.2,0.7,8.9-2.2,13.2-4.5c42.9-23.3,88.3-38.5,137.4-41.4C445.2,186.7,445.2,188.4,445.2,190.1z"/>
	<path fill="#6E8D7F" d="M445.2,185c-49.1,2.9-94.5,18.1-137.4,41.3c-4.3,2.3-8,5.2-13.2,4.5c6.2-7.7,14.9-12.2,22.9-17.7
		c25.5-8.1,49.5-20.5,75.9-25.8c21.8-4.4,43.7-9.5,66.2-5.3c0,0.8,0,1.6-0.1,2.5C454.7,184.7,449.9,184.9,445.2,185z"/>
	<path fill="#B2E5CF" d="M870,481.4c-2-0.5-6.1,10.1-5.9-0.9c0.1-8.6-1.1-16.8-4.7-24.6c-0.8-1.8-1.3-5.1-4.6-2.4
		c-2-1.6-2.4-3.8-2.2-6.2c0.4-0.3,1-0.6,1-0.8c-0.2-0.7-0.7-1.3-1-2c2.7-2.5,5.4-5,9-8.3C867.3,451.4,870.8,466,870,481.4z"/>
	<path fill="#94BEAC" d="M158.7,541.9c4.3,17.3,8.5,34.5,12.8,51.8c0,0-0.8,0.7-0.8,0.7c-7.5-3.4-2-15.2-11.4-17.3
		c-0.9,0-1.8-0.1-2.8-0.1c-1-8-2.1-15.9-2.9-23.9C153.1,548.4,151.6,543.1,158.7,541.9z"/>
	<path fill="#A7D6C2" d="M751.1,243.7c1.3-6.2-4.9-9.3-7.8-15.9c9.2,2,16.2,3.4,19.7,11.1c-8.1,7.4,5.4,7.9,3.9,14.4
		C760.7,251.4,754.6,250.1,751.1,243.7z"/>
	<path fill="#AEDDC9" d="M156.5,576.9c0.9,0,1.8,0.1,2.8,0.1c1,7.7,1.9,15.4,2.9,23.1c-0.9,1.9-1.8,3.8-2.7,5.7
		C153.4,596.7,157.1,586.6,156.5,576.9z"/>
	<path fill="#A6D1BF" d="M852.6,444.4c0.4,0.6,0.8,1.3,1,2c0,0.1-0.6,0.5-1,0.8C852.4,446.3,852.4,445.4,852.6,444.4z"/>
	<path fill="#B2E5CF" d="M872.3,484.7c-0.8-1-1.5-2-2.3-3.1C870.8,482.7,871.5,483.7,872.3,484.7z"/>
	<path fill="#FDFDFD" d="M396.1,798.9c-6.1,1.4-9.7-3.1-14.1-5.9c-0.3-3.5-1.8-5.8-5.6-5.9c0,0-0.1-0.1-0.1-0.1
		c-1.9-3.8-3-8.3-5.7-11.4c-25.9-29.8-40.3-65.8-54.3-101.8c-8.4-21.7-10-45.1-14-68c-5.8-33.3-5.8-66.2-1.7-99.3
		c6.3-50.3,21.3-97.9,44.8-142.9c3.1-6,9.5-10.8,8.7-19c-5.7-1.2-9.8,8.3-14.4,2.7c-4.7-5.8,0-11.5,3.2-17c1.5-2.4,4.8-5.3,0.7-9.6
		c-22.3,22.6-45.5,44.3-58.5,74c-6.7,15.4-19.8,27.5-24.3,43.8C244,500,238.9,562.4,249,625.7c0.6,3.9,4.7,8.4-1,11.4
		c-5.4,2.8-7.1-3.4-10.6-5.2c-6.8-13-16-24.9-18.8-39.8c0.3-4.3,0.9-8.6,0.7-12.8c-6-97.5,29.3-182.2,81.7-261.4
		c9.4-14.2,21.3-26.7,32.1-40c31.9-22.4,68-32.4,106.3-36.5c91.6-9.6,173.5,17.5,245.6,71.2c55.7,41.5,89.5,97.9,82.4,170.6
		c-5.1,52.5-27.5,98.1-64.1,136.7c-41.1,43.4-90.1,74.3-146.3,94.3c-17,4.5-34.4,7.3-50.5,14.8l0.1,0.1c-7.1,0.8-14.6-0.1-21.1,4
		c-7,0.3-13.3,2-17.6,8.2c-0.6,0.5-1.1,1.1-1.7,1.6c0.7,0.1,1.4,0.2,2.1,0.3c2.9,0.1,5.7,0.2,8.6,0.3c0.9,4.4-8,5.5-3.6,10.6
		c1.5,1.7,4.5,0.7,6.3-1.4c17.8,1.9,35.4-3.6,52.6-3.3c24.5,0.5,47.3-4.1,70.1-11c11.9-3.6,23.3-8.3,34.6-13.5
		c66.8-31,118.1-78.6,154.6-142.3c1.3-0.1,2.6-0.3,3.9-0.4c-2.2,12.6-4.5,25.3-6.7,37.9c-8,14.6-10.4,31.7-20.5,45.5
		c-51.5,70.6-126.4,105-206.2,129.7c-36.7,11.4-75.6,14.7-114.9,10.5C430,804.1,413.4,798.6,396.1,798.9z M457.5,743.9
		c-8.3-2.6-16.6-3.8-24.8,0.6C441,746.2,449.3,748.8,457.5,743.9z"/>
	<path fill="#ADDDC8" d="M237.5,631.9c3.5,1.8,5.2,8.1,10.6,5.2c5.7-3,1.6-7.5,1-11.4c-10.2-63.3-5-125.7,11.9-187.1
		c4.5-16.3,17.5-28.4,24.3-43.8c13-29.7,36.2-51.4,58.5-74c4.1,4.3,0.8,7.1-0.7,9.6c-3.2,5.4-7.9,11.2-3.2,17
		c4.6,5.6,8.7-3.9,14.4-2.7c0.8,8.2-5.6,13-8.7,19c-23.5,45-38.5,92.6-44.8,142.9c-4.2,33.1-4.1,66,1.7,99.3c4,22.9,5.6,46.2,14,68
		c14,36,28.3,72,54.3,101.8c2.7,3.1,3.8,7.6,5.7,11.4c-21.6-2.6-39.1-14.6-56.6-25.8c-18.1-11.6-34.6-25.5-48-42.7
		c4.3-6.7-2.1-13.5,0.1-20.2c-1.1-4.8-9.9-8-2.9-14.5c1,1,1.9,1.9,2.9,2.9c0.4,0.2,0.9,0.4,1.3,0.6c-0.4-0.2-0.8-0.5-1.2-0.7
		c-1-1-1.9-1.9-2.9-2.9c-1.2-9.9-6.1-10.9-13.7-5.7c-0.5-2.4-1-4.8-3.6-6c-1,0-2,0-2.9,0c0,0,0.1,0.1,0.1,0.1
		c0.3-2.3-0.6-3.3-2.9-2.9l0.1,0c-4.3-9.8-8.4-19.8-13-29.4C230.4,634.2,231.7,632,237.5,631.9z M281.6,694.4
		c-0.1,0.4-0.4,0.8-0.4,1.2c0,0.1,0.7,0.3,1,0.4c0.1-0.4,0.4-0.8,0.4-1.2C282.6,694.7,281.9,694.6,281.6,694.4z"/>
	<path fill="#94BCAB" d="M333.2,277.8c-10.8,13.3-22.7,25.8-32.1,40c-52.3,79.2-87.6,163.9-81.7,261.4c0.3,4.2-0.4,8.5-0.7,12.8
		c-9.9-8.7-9.8-21.3-11.8-32.6c-3.3-19-11-37.3-10.2-56.9c1.9-42.2,16.3-81.1,34.7-118.2c20.5-41.2,49.4-76.1,89-101
		C324.3,280.9,327.6,276.5,333.2,277.8z"/>
	<path fill="#A7D6C2" d="M788.8,620.2c2.2-12.6,4.5-25.3,6.7-37.9c2.7-2.4,1.9-5.6,1.8-8.6c7.8-14.2,6.4-30.8,11.8-45.6
		c6.5-1.3,5.2,11.1,11.3,7.4c5.2-3.1,6.1-10.1,5.7-16.4c0.7-3.8-0.8-8.2,2.9-11.2c6,7.2,6.2,14.7,3.8,23.7
		c-2,7.8-3.9,18.3,10.8,16.6c1.6,16.2-4.1,31-9,46c-0.6,1.9-1.5,5.4-4.6,2.8c-1.1-0.9-0.6-3.6-0.8-5.5c3.7-5.3,6.7-10.8,4.6-18.3
		c-5.9,5.7-4.4,12.2-4.6,18.3c-8.4,26.7-28.6,46.5-41.4,70.7c-2.2,4.2-5.6,7.7-4.9,12.9l0,0c-1.9,0-3.8,0.1-5.7,0.1
		c-4.3-3.2-0.9-5.6,0.8-8.3c15.8-26.3,30.2-53.3,37.8-83.3c1.6-6.3,6.6-14-3.9-18c1-4.8,1.9-9.6,2.9-14.4c0.2-0.4,0.4-0.8,0.7-1.2
		c-0.2,0.4-0.4,0.8-0.7,1.2c-9,3.2-6.7,8.7-2.9,14.4c-1.2,18.8-9.9,35.6-14.7,53.5C795.9,624.2,792.2,624,788.8,620.2z M820.3,542.6
		c-1.4-0.5-2.4-1.3-2.9-1.1c-1.2,0.6-2.1,1.6-3.2,2.5c0.9,0.3,1.9,1.1,2.5,0.9C817.9,544.6,818.9,543.6,820.3,542.6z"/>
	<path fill="#9FCDB9" d="M826.6,431.3C826.6,431.3,826.5,431.3,826.6,431.3c-5.3,20.1,2,40.3-0.4,60.5c-0.2,1.8,2.1,4,3.2,6
		c0,0,0.1,0.4,0.1,0.4c-6.1,0.3-6.6,5.8-8.8,9.7c-0.9,0-1.9,0.1-2.8,0.1l-0.7-0.6c12.2-119.5-42.2-202.8-142.3-261.2
		c-28.7-16.8-59.2-29.4-91.1-38.8c-4-1.2-8.7-1.2-11.6-5.1c-0.1-0.9-0.2-1.7-0.1-2.6c3.8,0.3,7.8-0.1,11.3,1
		c32.2,9.9,63.1,22.7,92.4,39.5c8.6,4.9,16.1,12.3,26.5,13.9c0,0,0,0,0,0c1.4,4.1,4.3,6,8.7,5.8c0,0,0,0,0,0
		c2.3,4.9,5.7,8.4,11.5,8.6c0,0,0,0,0,0c0.9,3,3.1,3.5,5.8,2.9c0,0,0,0,0,0c-0.6,4.5,2.2,6.8,5.8,8.6c1,0,1.9,0.1,2.9,0.1
		c0,0-0.1,0-0.1,0c1,1,2,2,3,3c0,0-0.1-0.1-0.1-0.1c1,2.9,3.1,3.6,5.9,2.9l-0.1-0.1c-0.5,4.4,1.6,6.2,5.8,5.8c0,0-0.1-0.1-0.1-0.1
		c0,1.9,1,2.9,3,3l-0.1-0.1c-0.5,4.3,1.5,6.3,5.8,5.8c0,0-0.1-0.1-0.1-0.1c0.1,1.9,1.1,2.9,3,3c0,0-0.1-0.1-0.1-0.1
		c-0.5,2.7,0.1,4.8,3,5.9c0,0-0.1-0.1-0.1-0.1c1,1,2,2,2.9,2.9c0,0,0,0,0,0c0.5,5.3,2.8,8.8,8.7,8.7c0,0,0,0,0,0
		c-0.7,2.8-0.1,4.9,2.9,5.8c0,0,0-0.1,0-0.1c0.8,2.2,1.2,4.5,2.3,6.5c15.9,29.6,33.8,58.4,38.5,92.6
		C821.6,428.6,824.2,429.7,826.6,431.3z"/>
	<path fill="#6E8D7F" d="M251.7,671.9c2.6,1.2,3.1,3.6,3.6,6c-1.3,0.9-2.6,1.8-3.9,2.7c-2.2,0.5-6.6-0.5-2.7,4.1
		c2.1,2.4,4,5,5.9,7.5c-7,5.5-9.4-2-11.9-5.2c-12.9-16.5-25.2-33.5-34.6-52.4c8.8-1.3,11.6,5.1,14.5,11.3c1,1,2,2,3,3c0,0,0,0,0,0
		c0,2.4,0.4,4.6,2.9,5.8c0,0,0,0,0,0c1,1,1.9,1.9,2.9,2.9c0,0,0.1,0,0.1,0c-0.1,2.4,0.4,4.6,2.9,5.7c0,0,0.1,0,0.1,0
		c0.9,6.7,3.9,10.7,11.5,8.7c1,0,2-0.1,3-0.1c0,0-0.1-0.1-0.1-0.1C249.8,674.4,250.8,674,251.7,671.9z"/>
	<path fill="#77998A" d="M459.5,184.5c0-0.8,0-1.6,0.1-2.5c15.7-0.3,31.2-4.8,47.1-3c5.3,0.6,10.8-0.2,13.5,5.8
		c0,0.8-0.1,1.5-0.3,2.3c-6.6,1.9-14.6-3.2-20.3,3.7c-0.8,0-1.6-0.1-2.4-0.3c-0.8-7.2-6.4-5.5-10.8-5.7
		C477.3,184.6,468.4,184.6,459.5,184.5z"/>
	<path fill="#6E8D7F" d="M506.7,729c16.1-7.5,33.5-10.4,50.5-14.8c0.5,4.4,1.6,9.2-5.1,10c-1-1.8-2-2-3,0.1c0,0,0.2-0.1,0.2-0.1
		C534.6,721.6,521.4,731.8,506.7,729z"/>
	<path fill="#9FCDB9" d="M826.2,519c0.4,6.3-0.4,13.3-5.7,16.4c-6.2,3.7-4.9-8.7-11.3-7.4c2-7.2,1.6-15.2,8-20.7
		c0,0,0.7,0.6,0.7,0.6c-0.1,3.1-0.6,6.4,2.7,8.5C821.7,518.9,823.7,519.3,826.2,519z"/>
	<path fill="#94BCAB" d="M459.5,184.5c8.9,0.1,17.9,0.1,26.8,0.4c4.4,0.1,10-1.5,10.8,5.7c-17.2-5.3-34.6,1.5-51.9-0.4
		c0-1.7,0-3.4,0-5.1C449.9,184.9,454.7,184.7,459.5,184.5z"/>
	<path fill="#8EB4A3" d="M506.7,729c14.7,2.8,27.9-7.3,42.6-4.9c-13.2,9.1-28.4,10.7-43.8,11.8C505.9,733.6,506.3,731.3,506.7,729
		L506.7,729z"/>
	<path fill="#6E8D7F" d="M506.7,729.1c-0.4,2.3-0.9,4.6-1.3,6.9c-0.9,0.9-1.7,1.7-2.6,2.6c-4.1,0.2-8.1,0.3-12.2,0.5
		c-1.7,0-3.4,0-5.1,0c0-2,0.1-4,0.1-6C492.2,729,499.6,729.9,506.7,729.1z"/>
	<path fill="#97C0AE" d="M485.6,739c1.7,0,3.4,0,5.1,0c0.1,1.7,0.3,3.3,0.4,5c-4.9,1.5-10.2,2.5-11.3,8.8c-1.7,2.1-4.7,3.1-6.3,1.4
		c-4.4-5,4.6-6.2,3.6-10.6C480,742.1,482.8,740.6,485.6,739z"/>
	<path fill="#77998A" d="M245.9,672.1c-7.6,2.1-10.6-1.9-11.5-8.7c5.1-0.6,7.3,4.8,11.7,5.7c0,0-0.1,0-0.1,0
		C245.9,670.1,245.9,671.1,245.9,672.1z"/>
	<path fill="#77998A" d="M491.1,744c-0.1-1.7-0.3-3.3-0.4-5c4.1-0.2,8.1-0.3,12.2-0.5C500.6,744,496.2,744.8,491.1,744z"/>
	<path fill="#A6D1BF" d="M797.3,573.7c0,3,0.9,6.2-1.8,8.6c-1.3,0.1-2.6,0.3-3.9,0.4C791.7,578.5,794,575.7,797.3,573.7z"/>
	<path fill="#94BEAC" d="M171.5,593.7c2.7,2.3,2.8,5.5,2.8,8.7l-0.7,0.6c-3.4-2.1-2.8-5.5-2.9-8.7L171.5,593.7z"/>
	<path fill="#77998A" d="M234.3,663.4c-2.5-1.1-2.9-3.3-2.9-5.7C233.9,658.9,234.5,661,234.3,663.4z"/>
	<path fill="#77998A" d="M228.6,654.8c-2.5-1.1-2.9-3.3-2.9-5.8C228,650.3,228.6,652.4,228.6,654.8z"/>
	<path fill="#94BEAC" d="M174.3,602.4c0.9,2,1.8,3.9,2.8,5.9c0,0-0.6,0.5-0.6,0.5c-2.3-1.3-2.8-3.4-2.9-5.8L174.3,602.4z"/>
	<path fill="#77998A" d="M231.4,657.7c-1-1-1.9-1.9-2.9-2.9C229.5,655.8,230.5,656.7,231.4,657.7z"/>
	<path fill="#8EB4A3" d="M549.1,724.2c0.9-2.1,1.9-1.9,3-0.1C551.1,724.2,550.1,724.2,549.1,724.2z"/>
	<path fill="#77998A" d="M225.7,649.1c-1-1-2-2-3-3C223.7,647.1,224.7,648.1,225.7,649.1z"/>
	<path fill="#A6D1BF" d="M788.8,620.2c3.4,3.8,7.1,4.1,8.5-1.2c4.8-17.9,13.5-34.6,14.7-53.5c0,0,0,0,0,0c10.5,4,5.5,11.7,3.9,18
		c-7.5,30-21.9,57-37.8,83.3c-1.7,2.8-5.1,5.1-0.8,8.3c-2.7,12.5-11.8,18.8-22.9,23c-1,1-2.1,2-3.1,3c0,0,0.1,0,0.1,0
		c-3.7-0.1-6.3,1.8-8.7,4.3c-18.2,18.6-39.9,32.1-61.8,45.7c-19.1,11.9-40.8,18.4-59.5,30.8c0,0,0,0,0,0
		c-19.5,1.6-34.7,15.3-53.5,19c-0.7,0.1-1,2.5-1.4,3.9c-17.1,5.5-34.7,10.9-52.3,11.1c-34.2,0.4-68.7,4.5-102.5-5.1
		c-7-2-14.5-2.4-15.5-11.8c17.4-0.3,33.9,5.2,51.1,7c39.3,4.2,78.2,0.9,114.9-10.5c79.8-24.7,154.7-59.1,206.2-129.7
		C778.3,651.9,780.7,634.8,788.8,620.2z"/>
	<path fill="#B2E5CF" d="M621.4,781.9c18.7-12.4,40.4-18.9,59.5-30.8c21.9-13.6,43.7-27.2,61.8-45.7c2.4-2.5,5-4.4,8.7-4.3
		c-3.2,11.3-13.3,16.9-21,24.3c-3.4,3.2-8.3,4.9-8.3,10.6c-0.7,0.8-1.4,1.6-2.2,2.4c-4.3,0-8.9-0.4-9.2,5.9l0,0
		c-16.5,2.4-28.4,14.6-43.3,20.5C652.2,770.6,638.9,781.9,621.4,781.9z"/>
	<path fill="#B2E5CF" d="M861,496.3c0,20.1,0,40.3,0,60.4c-6,8.2,0.7,20.2-8.9,27.9c-4.5-3.7-3-8.9-2.3-13c4.1-23.4,8.2-46.7,3-70.5
		c-0.3-1.4,1.5-3.3,2.4-4.9C857.1,496.3,859,496.3,861,496.3z"/>
	<path fill="#B2E5CF" d="M254.6,692.3c-2-2.5-3.9-5.1-5.9-7.5c-3.9-4.6,0.5-3.6,2.7-4.1c10.3,1.8,9.6,16.3,20.4,17.6
		c-2.2,6.7,4.1,13.5-0.1,20.2C261.8,712.5,259.3,701.7,254.6,692.3z"/>
	<path fill="#A7D6C2" d="M603.2,802.3c15.5-5.1,28-16.9,45.4-20.6C642.7,793.6,623.1,802.9,603.2,802.3z"/>
	<path fill="#A7D6C2" d="M720,738.4c0.7-0.8,1.4-1.6,2.2-2.4c4.3-0.1,7.7,2.1,3.7,5.6c-12.2,10.7-25.8,19.5-41.2,25.3
		c6.5-10.5,19.5-12.8,26.2-22.7c0,0,0,0,0,0C715.1,744.3,717.9,741.9,720,738.4z"/>
	<path fill="#B2E5CF" d="M566.4,804.7c0.5-1.3,0.7-3.7,1.4-3.9c18.8-3.6,34-17.3,53.5-19C606.3,797.2,585.4,798.6,566.4,804.7z"/>
	<path fill="#ADDDC8" d="M832.2,631.8c4.8-13.5,9.6-27,14.3-40.5c1,1,2,2,3,3c-3.4,14.9-7.2,29.6-14.5,43.2
		C832.7,636.3,832.3,634.1,832.2,631.8z"/>
	<path fill="#8EB4A3" d="M173.6,603c0.1,2.4,0.6,4.5,2.9,5.8c-0.2,1.8,0.4,4.3-0.6,5.4c-2.6,3-3.8-0.3-4.8-2
		c-2.7-4.2-3.6-9.7-8.8-12.1c-1-7.7-1.9-15.4-2.9-23.1c9.4,2.1,3.9,13.9,11.4,17.3C170.8,597.5,170.2,600.9,173.6,603z"/>
	<path fill="#9FCDB9" d="M832.2,631.8c0.1,2.3,0.5,4.5,2.9,5.7c-3.9,7.3-6.3,15.5-14.4,24C822.4,648.5,827.9,640.4,832.2,631.8z"/>
	<path fill="#A7D6C2" d="M843.7,504.9c1.2-5.1-3.4-12.4,5.6-14.5C848.4,495.6,853,503,843.7,504.9z"/>
	<path fill="#9FCDB9" d="M783,675.1c3.5-0.8,5.2-5.7,9.7-4.4C788.9,680.8,788.9,680.8,783,675.1C783,675,783,675.1,783,675.1z"/>
	<path fill="#A7D6C2" d="M659.6,776.3c2,0.1,3.4,0.5,2.7,2.2c-0.4,1-1.8,1.9-2.9,2.2c-1.6,0.4-2.7-0.8-2.2-2.3
		C657.6,777.5,659,776.9,659.6,776.3z"/>
	<path fill="#9FCDB9" d="M799.4,662.8c-0.4,0.8-0.5,2-1.1,2.3c-0.6,0.2-1.6-0.6-2.4-0.9c0.4-0.8,0.5-2,1.1-2.3
		C797.6,661.7,798.6,662.5,799.4,662.8z"/>
	<path fill="#ADDDC8" d="M376.4,787.1c3.8,0.1,5.3,2.5,5.6,5.9C377.8,793.2,375.7,791.5,376.4,787.1z"/>
	<path fill="#B2E5CF" d="M849.5,594.3c-1-1-2-2-3-3C851.1,588.8,848.8,593,849.5,594.3z"/>
	<path fill="#B2E5CF" d="M751.3,701.1c1-1,2.1-2,3.1-3C753.4,699.1,752.4,700.1,751.3,701.1z"/>
	<path fill="#8EB4A3" d="M548.8,184.8c2.7,1.7,5.3,3.4,8.2,5.3c-12.4,2-16.4,1-22.7-5.2C539.2,184.9,544,184.8,548.8,184.8z"/>
	<path fill="#A7D6C2" d="M735.8,223.1c-0.8,0.3-1.8,1.1-2.4,0.8c-0.6-0.3-0.7-1.5-1-2.3c0.8-0.3,1.8-1.1,2.4-0.8
		C735.3,221.1,735.5,222.3,735.8,223.1z"/>
	<path fill="#94BCAB" d="M519.8,187.1c0.2-0.7,0.3-1.5,0.3-2.3c2,0,4,0,6,0C524.7,187.5,522.4,187.7,519.8,187.1z"/>
	<path fill="#77998A" d="M702.3,254c-10.4-1.6-17.9-8.9-26.5-13.9c-29.3-16.8-60.2-29.6-92.4-39.5c-3.5-1.1-7.5-0.7-11.3-1
		c-0.8-1.2-1.7-2.4-2.5-3.6c-0.1-1.1-0.2-2.2-0.3-3.2c47.4,10,90.3,30.4,130.9,56.3C701.4,249.9,701.6,252.3,702.3,254z"/>
	<path fill="#6E8D7F" d="M826.6,431.3c-2.3-1.6-5-2.7-5.4-6.1c-4.8-34.2-22.6-63-38.5-92.6c-1.1-2-1.6-4.3-2.3-6.5
		c1.7,0.6,4.3,0.7,5,1.9C804.5,360.2,824.2,392.3,826.6,431.3z"/>
	<path fill="#6E8D7F" d="M829.4,497.7c-1.1-2-3.4-4.1-3.2-6c2.4-20.1-4.9-40.3,0.3-60.4C835.5,453.1,832.4,475.4,829.4,497.7z"/>
	<path fill="#77998A" d="M826.2,519c-2.4,0.3-4.5-0.1-5.7-2.6c0.1-2.9,0.1-5.7,0.2-8.6c2.2-3.9,2.7-9.3,8.8-9.7
		c-0.1,3.2-0.3,6.4-0.4,9.7C825.4,510.8,826.9,515.2,826.2,519z"/>
	<path fill="#77998A" d="M722.5,268.4c-5.8-0.2-9.2-3.7-11.5-8.6C717.4,259.2,721.8,261.2,722.5,268.4z"/>
	<path fill="#6E8D7F" d="M777.4,320.3c-5.9,0.1-8.2-3.4-8.7-8.7C774.6,311.5,776.8,315.2,777.4,320.3z"/>
	<path fill="#77998A" d="M734,279.8c-3.5-1.8-6.4-4-5.8-8.6c4.2-0.1,6.8,2.3,8.8,5.7C736.1,278,735.1,278.9,734,279.8z"/>
	<path fill="#77998A" d="M710.9,259.7c-4.4,0.3-7.3-1.6-8.7-5.8C706.8,253.4,710.8,253.7,710.9,259.7z"/>
	<path fill="#8EB4A3" d="M569.2,192.8c0.1,1.1,0.2,2.2,0.3,3.2c-2.2-0.1-5.5,0-5.1-2.9C564.9,190,567.4,190.9,569.2,192.8z"/>
	<path fill="#6E8D7F" d="M751.4,291.5c-4.3,0.4-6.3-1.4-5.8-5.8C748.6,286.5,750.7,288.3,751.4,291.5z"/>
	<path fill="#6E8D7F" d="M760.1,300.1c-4.3,0.4-6.3-1.5-5.8-5.8C757.5,295,759.4,296.9,760.1,300.1z"/>
	<path fill="#6E8D7F" d="M765.8,308.8c-2.8-1-3.5-3.1-3-5.9C765.7,304,766.6,306,765.8,308.8z"/>
	<path fill="#6E8D7F" d="M745.6,285.7c-2.8,0.7-4.9-0.1-5.9-2.9C742.6,281.9,744.5,283,745.6,285.7z"/>
	<path fill="#77998A" d="M728.2,271.3c-2.7,0.6-4.8,0.1-5.8-2.9C725.4,267.5,727.3,268.5,728.2,271.3z"/>
	<path fill="#6E8D7F" d="M780.3,326.1c-3-0.9-3.6-3.1-2.9-5.8C780.2,321.3,781.1,323.3,780.3,326.1z"/>
	<path fill="#6E8D7F" d="M762.9,303.1c-1.9-0.1-2.9-1.1-3-3C761,301.1,762,302.1,762.9,303.1z"/>
	<path fill="#6E8D7F" d="M754.3,294.4c-1.9,0-2.9-1-3-3C752.3,292.4,753.3,293.4,754.3,294.4z"/>
	<path fill="#6E8D7F" d="M768.7,311.7c-1-1-2-2-2.9-2.9C767.9,308.6,768.8,309.6,768.7,311.7z"/>
	<path fill="#6E8D7F" d="M739.8,282.9c-1-1-2-2-3-3C738.9,279.9,739.9,280.8,739.8,282.9z"/>
	<path fill="#6E8D7F" d="M734,279.8c1-0.9,2-1.9,3-2.8c0,1-0.1,2-0.1,2.9C736,279.9,735,279.9,734,279.8z"/>
	<path fill="#AEDDC9" d="M457.5,743.9c-8.2,4.9-16.5,2.2-24.8,0.6C440.9,740.2,449.2,741.4,457.5,743.9z"/>
	<path fill="#77998A" d="M485.6,739c-2.8,1.5-5.6,3-8.4,4.5c-2.9-0.1-5.7-0.2-8.6-0.3c0-0.7-0.1-1.3-0.5-2
		c4.3-6.2,10.6-7.9,17.6-8.2C485.6,735.1,485.6,737.1,485.6,739z"/>
	<path fill="#97C0AE" d="M468.1,741.3c0.3,0.6,0.5,1.3,0.5,2c-0.7-0.1-1.4-0.2-2.1-0.4C467,742.3,467.5,741.8,468.1,741.3z"/>
	<path fill="#9FCDB9" d="M271.8,698.2c-10.7-1.3-10.1-15.7-20.4-17.6c1.3-0.9,2.6-1.8,3.9-2.7c7.5-5.2,12.5-4.2,13.7,5.7l-0.1,0.1
		C261.9,690.2,270.7,693.4,271.8,698.2z"/>
	<path fill="#9FCDB9" d="M281.6,694.4c0.4,0.1,1,0.2,1,0.4c0,0.4-0.2,0.8-0.4,1.2c-0.4-0.1-1-0.2-1-0.4
		C281.2,695.3,281.4,694.8,281.6,694.4z"/>
	<path fill="#5B746A" d="M251.7,671.9c-1,2.1-2,2.5-2.9,0C249.8,671.9,250.8,671.9,251.7,671.9z"/>
	<path fill="#9FCDB9" d="M269,683.7c1,1,1.9,1.9,2.9,2.9l-0.1,0.1C270.8,685.7,269.8,684.7,269,683.7
		C268.9,683.8,269,683.7,269,683.7z"/>
	<path fill="#9FCDB9" d="M271.8,686.6c0.4,0.2,0.8,0.5,1.2,0.7C272.6,687.1,272.2,686.9,271.8,686.6
		C271.8,686.6,271.8,686.6,271.8,686.6z"/>
	<path fill="#5B746A" d="M245.9,672.1c0-1,0.1-2,0.1-3c2.3-0.4,3.3,0.5,2.9,2.9C247.9,672,246.9,672.1,245.9,672.1z"/>
	<path fill="#94BEAC" d="M829.3,591.4c0.3-6.1-1.3-12.6,4.6-18.3C836,580.7,833,586.1,829.3,591.4
		C829.3,591.4,829.3,591.4,829.3,591.4z"/>
	<path fill="#A6D1BF" d="M814.9,551.1c-1,4.8-1.9,9.6-2.9,14.4c0,0,0,0,0,0C808.1,559.7,805.8,554.3,814.9,551.1L814.9,551.1z"/>
	<path fill="#A6D1BF" d="M820.3,542.6c-1.4,0.9-2.4,1.9-3.5,2.3c-0.7,0.2-1.7-0.5-2.5-0.9c1-0.9,2-1.9,3.2-2.5
		C817.9,541.3,818.9,542.1,820.3,542.6z"/>
	<path fill="#A6D1BF" d="M814.8,551.1c0.2-0.4,0.4-0.8,0.7-1.2C815.3,550.3,815.1,550.7,814.8,551.1L814.8,551.1z"/>
	<path fill="#A6D1BF" d="M820.7,507.8c-0.1,2.9-0.1,5.7-0.2,8.6c-3.3-2.1-2.7-5.4-2.7-8.5C818.8,507.9,819.7,507.8,820.7,507.8z"/>
	<path fill="#94BEAC" d="M720,738.4c-2,3.5-4.8,5.9-9.2,5.9C711.1,738,715.6,738.3,720,738.4z"/>
</g>
</svg>
