<svg width="566" height="566" viewBox="0 0 566 566" fill="none" xmlns="http://www.w3.org/2000/svg">
<rect x="0.448486" y="0.547241" width="564.906" height="564.906" rx="121" fill="#29A71A"/>
<path fill-rule="evenodd" clip-rule="evenodd" d="M173.141 284.767L155.579 348.428L220.557 330.867C239.436 341.404 260.51 348.428 282.462 348.428C352.27 348.428 410.223 289.596 410.223 220.228C410.223 150.86 352.269 93.7841 282.462 93.7841C212.655 93.7841 155.579 150.86 155.579 220.228C155.579 243.058 161.726 265.01 173.141 284.767ZM228.021 310.215L224.069 308.02L186.312 317.679L196.41 280.8L193.776 276.848C183.239 260.164 177.531 240.408 177.531 220.212C177.531 162.258 224.509 115.72 282.462 115.72C340.415 115.72 388.271 161.819 388.271 220.212C388.271 278.604 340.415 326.46 282.901 326.46C263.144 326.46 244.265 320.313 228.021 310.215Z" fill="#FEFEFE"/>
<path d="M252.679 161.516L244.352 161.078C241.722 161.078 239.093 161.954 237.34 163.708C233.395 167.214 226.821 173.788 225.068 182.554C222 195.702 226.821 211.48 238.217 227.258C249.612 243.036 271.526 268.457 310.094 279.414C322.366 282.92 332.009 280.728 339.898 275.907C346.034 271.963 349.978 265.827 351.293 259.253L352.608 253.117C353.046 251.363 352.17 249.172 350.416 248.296L322.805 235.585C321.052 234.709 318.86 235.147 317.545 236.9L306.588 250.925C305.711 251.802 304.397 252.24 303.082 251.802C295.631 249.172 270.649 238.653 257.062 212.357C256.624 211.042 256.624 209.727 257.501 208.85L268.019 197.017C268.896 195.702 269.334 193.949 268.896 192.634L256.186 164.146C255.747 162.831 254.432 161.516 252.679 161.516Z" fill="#FEFEFE"/>
<path d="M47.1894 388.457H62.2614L73.2054 434.921L85.2054 388.457H99.3174L111.125 435.497L122.453 388.457H137.237L118.805 456.809H103.829L92.1174 410.153L80.5974 456.809H65.3334L47.1894 388.457ZM156.278 388.457V413.897C160.182 408.649 165.398 406.025 171.926 406.025C183.51 406.025 189.302 412.137 189.302 424.361V456.809H175.67V427.625C175.67 424.233 175.062 421.641 173.846 419.849C172.63 418.057 170.326 417.161 166.934 417.161C162.838 417.161 160.022 418.473 158.486 421.097C157.014 423.721 156.278 427.209 156.278 431.561V456.809H142.838V388.457H156.278ZM245.728 456.809H231.904C231.456 455.529 231.136 453.929 230.944 452.009C226.784 456.169 221.44 458.249 214.912 458.249C209.408 458.249 205.088 456.937 201.952 454.313C198.816 451.625 197.248 447.945 197.248 443.273C197.248 441.161 197.504 439.305 198.016 437.705C198.592 436.105 199.488 434.761 200.704 433.673C201.984 432.585 203.168 431.689 204.256 430.985C205.408 430.281 206.976 429.705 208.96 429.257C210.944 428.809 212.544 428.489 213.76 428.297C214.976 428.041 216.672 427.785 218.848 427.529C223.648 426.889 226.848 426.217 228.448 425.513C230.112 424.809 230.944 423.497 230.944 421.577C230.944 417.161 227.968 414.953 222.016 414.953C218.88 414.953 216.576 415.529 215.104 416.681C213.632 417.769 212.672 419.721 212.224 422.537H199.456C200.224 411.401 207.872 405.833 222.4 405.833C236.8 405.833 244 411.209 244 421.961V443.369C244 449.641 244.576 454.121 245.728 456.809ZM230.848 432.713C229.248 433.673 226.048 434.537 221.248 435.305C217.216 435.945 214.592 436.745 213.376 437.705C211.968 438.921 211.264 440.585 211.264 442.697C211.264 444.745 211.904 446.377 213.184 447.593C214.528 448.745 216.384 449.321 218.752 449.321C222.4 449.321 225.312 448.361 227.488 446.441C229.728 444.457 230.848 441.737 230.848 438.281V432.713ZM282.037 407.273V416.489H271.957V439.817C271.957 441.289 271.989 442.377 272.053 443.081C272.117 443.721 272.341 444.393 272.725 445.097C273.109 445.801 273.685 446.281 274.453 446.537C275.285 446.729 276.437 446.825 277.909 446.825C279.573 446.825 280.949 446.761 282.037 446.633V457.001C278.709 457.257 275.957 457.385 273.781 457.385C267.829 457.385 263.765 456.361 261.589 454.313C259.477 452.201 258.421 448.169 258.421 442.217V416.489H250.165V407.273H258.421V392.297H271.957V407.273H282.037ZM330.379 421.673H317.707C317.323 419.177 316.363 417.417 314.827 416.393C313.355 415.369 311.179 414.857 308.299 414.857C305.867 414.857 303.979 415.305 302.635 416.201C301.291 417.033 300.619 418.217 300.619 419.753C300.619 421.545 301.387 422.793 302.923 423.497C304.459 424.201 307.211 424.969 311.179 425.801C311.883 425.929 312.395 426.025 312.715 426.089C315.019 426.537 316.843 426.953 318.187 427.337C319.595 427.657 321.291 428.233 323.275 429.065C325.259 429.833 326.795 430.729 327.883 431.753C328.971 432.713 329.931 434.025 330.763 435.689C331.595 437.353 332.011 439.273 332.011 441.449C332.011 446.633 329.995 450.729 325.963 453.737C321.931 456.745 316.395 458.249 309.355 458.249C302.635 458.249 297.099 456.809 292.747 453.929C288.395 451.049 286.187 446.633 286.123 440.681H299.083C299.531 446.185 303.051 448.937 309.643 448.937C312.395 448.937 314.571 448.393 316.171 447.305C317.835 446.153 318.667 444.649 318.667 442.793C318.667 440.937 317.931 439.625 316.459 438.857C314.987 438.089 312.267 437.257 308.299 436.361C307.979 436.297 307.723 436.233 307.531 436.169C307.083 436.041 306.091 435.817 304.555 435.497C303.019 435.177 301.931 434.953 301.291 434.825C300.715 434.633 299.723 434.345 298.315 433.961C296.971 433.577 295.979 433.225 295.339 432.905C294.699 432.521 293.835 432.073 292.747 431.561C291.723 430.985 290.955 430.377 290.443 429.737C289.931 429.097 289.355 428.361 288.715 427.529C288.139 426.633 287.723 425.641 287.467 424.553C287.275 423.465 287.179 422.281 287.179 421.001C287.179 416.137 289.067 412.393 292.843 409.769C296.619 407.145 301.963 405.833 308.875 405.833C315.083 405.833 320.171 407.113 324.139 409.673C328.107 412.233 330.187 416.233 330.379 421.673ZM375.509 388.361L401.525 456.809H385.781L380.405 441.545H354.965L349.397 456.809H334.037L360.053 388.361H375.509ZM376.757 430.601L367.733 405.161L358.613 430.601H376.757ZM418.668 407.273V413.417C422.252 408.425 427.372 405.929 434.028 405.929C440.684 405.929 446.028 408.329 450.06 413.129C454.092 417.929 456.108 424.329 456.108 432.329C456.108 440.073 454.124 446.313 450.156 451.049C446.252 455.721 441.068 458.057 434.604 458.057C427.948 458.057 422.86 455.593 419.34 450.665V474.377H405.804V407.273H418.668ZM430.668 416.873C426.956 416.873 424.044 418.217 421.932 420.905C419.884 423.593 418.86 427.337 418.86 432.137C418.86 436.937 419.916 440.681 422.028 443.369C424.14 446.057 427.052 447.401 430.764 447.401C434.412 447.401 437.26 446.057 439.308 443.369C441.42 440.681 442.476 437.001 442.476 432.329C442.476 427.529 441.42 423.753 439.308 421.001C437.196 418.249 434.316 416.873 430.668 416.873ZM477.356 407.273V413.417C480.94 408.425 486.06 405.929 492.716 405.929C499.372 405.929 504.716 408.329 508.748 413.129C512.78 417.929 514.796 424.329 514.796 432.329C514.796 440.073 512.812 446.313 508.844 451.049C504.94 455.721 499.756 458.057 493.292 458.057C486.636 458.057 481.548 455.593 478.028 450.665V474.377H464.492V407.273H477.356ZM489.356 416.873C485.644 416.873 482.732 418.217 480.62 420.905C478.572 423.593 477.548 427.337 477.548 432.137C477.548 436.937 478.604 440.681 480.716 443.369C482.828 446.057 485.74 447.401 489.452 447.401C493.1 447.401 495.948 446.057 497.996 443.369C500.108 440.681 501.164 437.001 501.164 432.329C501.164 427.529 500.108 423.753 497.996 421.001C495.884 418.249 493.004 416.873 489.356 416.873Z" fill="white"/>
</svg>
